<svg width="85" height="24" viewBox="0 0 85 24" fill="none" xmlns="http://www.w3.org/2000/svg">
<g clip-path="url(#clip0_35_11221)">
<path d="M20 11H4V13H20V11Z" fill="black"/>
</g>
<rect x="28.25" y="0.25" width="28.5" height="23.5" rx="3.75" stroke="black" stroke-width="0.5"/>
<path d="M39.6 8.292V16.5H38.496V9.66L36.9 10.356L36.48 9.42L38.892 8.292H39.6ZM41.1335 12.396C41.1335 11.148 41.4415 10.12 42.0575 9.312C42.6735 8.504 43.4655 8.1 44.4335 8.1C45.4015 8.1 46.1935 8.508 46.8095 9.324C47.4255 10.132 47.7335 11.156 47.7335 12.396C47.7335 13.628 47.4255 14.656 46.8095 15.48C46.1935 16.288 45.4015 16.692 44.4335 16.692C43.4655 16.692 42.6735 16.288 42.0575 15.48C41.4415 14.656 41.1335 13.628 41.1335 12.396ZM46.6055 12.396C46.6055 11.452 46.4055 10.676 46.0055 10.068C45.6135 9.46 45.0895 9.156 44.4335 9.156C43.7775 9.156 43.2535 9.46 42.8615 10.068C42.4615 10.676 42.2615 11.452 42.2615 12.396C42.2615 13.34 42.4615 14.12 42.8615 14.736C43.2535 15.336 43.7775 15.636 44.4335 15.636C45.0895 15.636 45.6135 15.332 46.0055 14.724C46.4055 14.108 46.6055 13.332 46.6055 12.396Z" fill="black"/>
<g clip-path="url(#clip1_35_11221)">
<path d="M80 13H74V19H72V13H66V11H72V5H74V11H80V13Z" fill="black"/>
</g>
<defs>
<clipPath id="clip0_35_11221">
<rect width="24" height="24" fill="white"/>
</clipPath>
<clipPath id="clip1_35_11221">
<rect width="24" height="24" fill="white" transform="translate(61)"/>
</clipPath>
</defs>
</svg>
