<svg width="64" height="24" viewBox="0 0 64 24" fill="none" xmlns="http://www.w3.org/2000/svg">
<path d="M4.8 6.556V17.5H3.328V8.38L1.2 9.308L0.64 8.06L3.856 6.556H4.8ZM6.84463 12.028C6.84463 10.364 7.25529 8.99333 8.07663 7.916C8.89796 6.83867 9.95396 6.3 11.2446 6.3C12.5353 6.3 13.5913 6.844 14.4126 7.932C15.234 9.00933 15.6446 10.3747 15.6446 12.028C15.6446 13.6707 15.234 15.0413 14.4126 16.14C13.5913 17.2173 12.5353 17.756 11.2446 17.756C9.95396 17.756 8.89796 17.2173 8.07663 16.14C7.25529 15.0413 6.84463 13.6707 6.84463 12.028ZM14.1406 12.028C14.1406 10.7693 13.874 9.73467 13.3406 8.924C12.818 8.11333 12.1193 7.708 11.2446 7.708C10.37 7.708 9.67129 8.11333 9.14863 8.924C8.61529 9.73467 8.34863 10.7693 8.34863 12.028C8.34863 13.2867 8.61529 14.3267 9.14863 15.148C9.67129 15.948 10.37 16.348 11.2446 16.348C12.1193 16.348 12.818 15.9427 13.3406 15.132C13.874 14.3107 14.1406 13.276 14.1406 12.028ZM17.0478 12.028C17.0478 10.364 17.4584 8.99333 18.2798 7.916C19.1011 6.83867 20.1571 6.3 21.4478 6.3C22.7384 6.3 23.7944 6.844 24.6158 7.932C25.4371 9.00933 25.8478 10.3747 25.8478 12.028C25.8478 13.6707 25.4371 15.0413 24.6158 16.14C23.7944 17.2173 22.7384 17.756 21.4478 17.756C20.1571 17.756 19.1011 17.2173 18.2798 16.14C17.4584 15.0413 17.0478 13.6707 17.0478 12.028ZM24.3438 12.028C24.3438 10.7693 24.0771 9.73467 23.5438 8.924C23.0211 8.11333 22.3224 7.708 21.4478 7.708C20.5731 7.708 19.8744 8.11333 19.3518 8.924C18.8184 9.73467 18.5518 10.7693 18.5518 12.028C18.5518 13.2867 18.8184 14.3267 19.3518 15.148C19.8744 15.948 20.5731 16.348 21.4478 16.348C22.3224 16.348 23.0211 15.9427 23.5438 15.132C24.0771 14.3107 24.3438 13.276 24.3438 12.028ZM32.5309 9.036C32.5309 9.78267 32.2589 10.428 31.7149 10.972C31.1815 11.5053 30.5415 11.772 29.7949 11.772C29.0589 11.772 28.4135 11.5053 27.8589 10.972C27.3255 10.4173 27.0589 9.772 27.0589 9.036C27.0589 8.28933 27.3255 7.64933 27.8589 7.116C28.4029 6.572 29.0482 6.3 29.7949 6.3C30.5415 6.3 31.1815 6.572 31.7149 7.116C32.2589 7.64933 32.5309 8.28933 32.5309 9.036ZM37.0589 7.036L29.9549 17.628L29.0429 17.036L36.1629 6.428L37.0589 7.036ZM31.3469 9.036C31.3469 8.556 31.1975 8.16133 30.8989 7.852C30.6109 7.532 30.2429 7.372 29.7949 7.372C29.3575 7.372 28.9895 7.532 28.6909 7.852C28.3922 8.16133 28.2429 8.556 28.2429 9.036C28.2429 9.516 28.3922 9.91067 28.6909 10.22C28.9895 10.54 29.3575 10.7 29.7949 10.7C30.2429 10.7 30.6109 10.5453 30.8989 10.236C31.1975 9.916 31.3469 9.516 31.3469 9.036ZM39.0589 15.02C39.0589 15.7667 38.7869 16.412 38.2429 16.956C37.7095 17.4893 37.0695 17.756 36.3229 17.756C35.5869 17.756 34.9415 17.4893 34.3869 16.956C33.8535 16.4013 33.5869 15.756 33.5869 15.02C33.5869 14.2733 33.8535 13.6333 34.3869 13.1C34.9309 12.556 35.5762 12.284 36.3229 12.284C37.0695 12.284 37.7095 12.556 38.2429 13.1C38.7869 13.6333 39.0589 14.2733 39.0589 15.02ZM37.8749 15.02C37.8749 14.54 37.7255 14.1453 37.4269 13.836C37.1389 13.516 36.7709 13.356 36.3229 13.356C35.8855 13.356 35.5175 13.516 35.2189 13.836C34.9202 14.1453 34.7709 14.54 34.7709 15.02C34.7709 15.5 34.9202 15.8947 35.2189 16.204C35.5175 16.524 35.8855 16.684 36.3229 16.684C36.7709 16.684 37.1389 16.5293 37.4269 16.22C37.7255 15.9 37.8749 15.5 37.8749 15.02Z" fill="black"/>
<g clip-path="url(#clip0_35_11209)">
<path d="M47 10L52 15L57 10H47Z" fill="black"/>
</g>
<defs>
<clipPath id="clip0_35_11209">
<rect width="24" height="24" fill="white" transform="translate(40)"/>
</clipPath>
</defs>
</svg>
