<svg width="75" height="24" viewBox="0 0 75 24" fill="none" xmlns="http://www.w3.org/2000/svg">
<path d="M1.152 17.5V6.044H4.656C6.40533 6.044 7.808 6.572 8.864 7.628C9.93067 8.684 10.464 10.0653 10.464 11.772C10.464 13.4893 9.93067 14.876 8.864 15.932C7.808 16.9773 6.40533 17.5 4.656 17.5H1.152ZM2.624 7.452V16.092H4.656C5.98933 16.092 7.04 15.7133 7.808 14.956C8.576 14.188 8.96 13.1267 8.96 11.772C8.96 10.428 8.576 9.372 7.808 8.604C7.04 7.836 5.98933 7.452 4.656 7.452H2.624ZM15.2441 17.756C14.0921 17.756 13.1428 17.3613 12.3961 16.572C11.6495 15.7827 11.2761 14.7853 11.2761 13.58C11.2761 12.3853 11.6388 11.3933 12.3641 10.604C13.0895 9.804 14.0175 9.404 15.1481 9.404C16.3108 9.404 17.2335 9.78267 17.9161 10.54C18.6095 11.2867 18.9561 12.3373 18.9561 13.692L18.9401 13.852H12.7801C12.8015 14.62 13.0575 15.2387 13.5481 15.708C14.0388 16.1773 14.6255 16.412 15.3081 16.412C16.2468 16.412 16.9828 15.9427 17.5161 15.004L18.8281 15.644C18.4761 16.3053 17.9855 16.8227 17.3561 17.196C16.7375 17.5693 16.0335 17.756 15.2441 17.756ZM12.8921 12.636H17.3881C17.3455 12.092 17.1215 11.644 16.7161 11.292C16.3215 10.9293 15.7881 10.748 15.1161 10.748C14.5615 10.748 14.0815 10.9187 13.6761 11.26C13.2815 11.6013 13.0201 12.06 12.8921 12.636ZM23.762 5.916C24.2953 5.916 24.7327 6.00667 25.074 6.188L24.674 7.484C24.418 7.356 24.13 7.292 23.81 7.292C23.4473 7.292 23.1487 7.42 22.914 7.676C22.69 7.92133 22.578 8.252 22.578 8.668V9.66H24.626V11.004H22.578V17.5H21.106V11.004H19.634V9.66H21.106V8.524C21.106 7.74533 21.3513 7.116 21.842 6.636C22.3433 6.156 22.9833 5.916 23.762 5.916ZM26.7961 15.1C26.7961 15.484 26.9561 15.804 27.2761 16.06C27.6068 16.316 27.9908 16.444 28.4281 16.444C29.0468 16.444 29.5961 16.2147 30.0761 15.756C30.5668 15.2973 30.8121 14.7587 30.8121 14.14C30.3535 13.7773 29.7135 13.596 28.8921 13.596C28.2948 13.596 27.7935 13.74 27.3881 14.028C26.9935 14.316 26.7961 14.6733 26.7961 15.1ZM28.7001 9.404C29.7881 9.404 30.6468 9.69733 31.2761 10.284C31.9055 10.86 32.2201 11.6547 32.2201 12.668V17.5H30.8121V16.412H30.7481C30.1401 17.308 29.3295 17.756 28.3161 17.756C27.4521 17.756 26.7268 17.5 26.1401 16.988C25.5641 16.476 25.2761 15.836 25.2761 15.068C25.2761 14.2573 25.5801 13.612 26.1881 13.132C26.8068 12.652 27.6281 12.412 28.6521 12.412C29.5268 12.412 30.2468 12.572 30.8121 12.892V12.556C30.8121 12.044 30.6095 11.612 30.2041 11.26C29.7988 10.8973 29.3241 10.716 28.7801 10.716C27.9588 10.716 27.3081 11.0627 26.8281 11.756L25.5321 10.94C26.2468 9.916 27.3028 9.404 28.7001 9.404ZM40.7604 17.5H39.3524V16.412H39.2884C39.0644 16.796 38.7177 17.116 38.2484 17.372C37.7897 17.628 37.3097 17.756 36.8084 17.756C35.8484 17.756 35.107 17.484 34.5844 16.94C34.0724 16.3853 33.8164 15.6013 33.8164 14.588V9.66H35.2884V14.492C35.3204 15.772 35.9657 16.412 37.2244 16.412C37.811 16.412 38.3017 16.1773 38.6964 15.708C39.091 15.228 39.2884 14.6573 39.2884 13.996V9.66H40.7604V17.5ZM44.0243 6.044V17.5H42.5523V6.044H44.0243ZM49 17.628C48.36 17.628 47.8267 17.4307 47.4 17.036C46.984 16.6413 46.7707 16.092 46.76 15.388V11.004H45.384V9.66H46.76V7.26H48.232V9.66H50.152V11.004H48.232V14.908C48.232 15.4307 48.3333 15.788 48.536 15.98C48.7387 16.1613 48.968 16.252 49.224 16.252C49.3413 16.252 49.4533 16.2413 49.56 16.22C49.6773 16.188 49.784 16.1507 49.88 16.108L50.344 17.42C49.96 17.5587 49.512 17.628 49 17.628Z" fill="black"/>
<g clip-path="url(#clip0_35_11215)">
<path d="M58 10L63 15L68 10H58Z" fill="black"/>
</g>
<defs>
<clipPath id="clip0_35_11215">
<rect width="24" height="24" fill="white" transform="translate(51)"/>
</clipPath>
</defs>
</svg>
