<svg width="24" height="22" viewBox="0 0 24 22" fill="none" xmlns="http://www.w3.org/2000/svg">
<g clip-path="url(#clip0_35_11246)">
<path d="M11.9999 15.1668C8.32659 15.1668 5.33325 12.1735 5.33325 8.50016C5.33325 4.82683 8.32659 1.8335 11.9999 1.8335C15.6733 1.8335 18.6666 4.52683 18.6666 7.8335C18.6666 10.0402 16.8733 11.8335 14.6666 11.8335H13.4866C13.2999 11.8335 13.1533 11.9802 13.1533 12.1668C13.1533 12.2468 13.1866 12.3202 13.2399 12.3868C13.5133 12.7002 13.6666 13.0935 13.6666 13.5002C13.6666 14.4202 12.9199 15.1668 11.9999 15.1668ZM11.9999 3.16683C9.05992 3.16683 6.66659 5.56016 6.66659 8.50016C6.66659 11.4402 9.05992 13.8335 11.9999 13.8335C12.1866 13.8335 12.3333 13.6868 12.3333 13.5002C12.3333 13.3935 12.2799 13.3135 12.2399 13.2668C11.9666 12.9602 11.8199 12.5668 11.8199 12.1668C11.8199 11.2468 12.5666 10.5002 13.4866 10.5002H14.6666C16.1399 10.5002 17.3333 9.30683 17.3333 7.8335C17.3333 5.26016 14.9399 3.16683 11.9999 3.16683Z" fill="black"/>
<path d="M8.33325 9.1665C8.88554 9.1665 9.33325 8.71879 9.33325 8.1665C9.33325 7.61422 8.88554 7.1665 8.33325 7.1665C7.78097 7.1665 7.33325 7.61422 7.33325 8.1665C7.33325 8.71879 7.78097 9.1665 8.33325 9.1665Z" fill="black"/>
<path d="M10.3333 6.5C10.8855 6.5 11.3333 6.05228 11.3333 5.5C11.3333 4.94772 10.8855 4.5 10.3333 4.5C9.78097 4.5 9.33325 4.94772 9.33325 5.5C9.33325 6.05228 9.78097 6.5 10.3333 6.5Z" fill="black"/>
<path d="M13.6667 6.5C14.219 6.5 14.6667 6.05228 14.6667 5.5C14.6667 4.94772 14.219 4.5 13.6667 4.5C13.1145 4.5 12.6667 4.94772 12.6667 5.5C12.6667 6.05228 13.1145 6.5 13.6667 6.5Z" fill="black"/>
<path d="M15.6667 9.1665C16.219 9.1665 16.6667 8.71879 16.6667 8.1665C16.6667 7.61422 16.219 7.1665 15.6667 7.1665C15.1145 7.1665 14.6667 7.61422 14.6667 8.1665C14.6667 8.71879 15.1145 9.1665 15.6667 9.1665Z" fill="black"/>
</g>
<rect x="2" y="18.5" width="20" height="3" fill="white"/>
<defs>
<clipPath id="clip0_35_11246">
<rect width="16" height="16" fill="white" transform="translate(4 0.5)"/>
</clipPath>
</defs>
</svg>
